<svg width="97" height="68" viewBox="0 0 97 68" fill="none" xmlns="http://www.w3.org/2000/svg">
<g clip-path="url(#clip0_11_127)">
<path d="M59.7949 50.1414L67.9019 36.0996C68.2567 35.4836 68.4433 34.7852 68.4429 34.0744C68.4425 33.3635 68.2552 32.6653 67.8998 32.0497L59.6668 17.9351C59.311 17.3189 58.7993 16.8072 58.1831 16.4514C57.5669 16.0956 56.8679 15.9083 56.1563 15.9083L39.8162 15.8356C39.1054 15.8356 38.407 16.0225 37.7913 16.3776C37.1755 16.7327 36.6639 17.2435 36.3078 17.8587L28.2008 31.9006C27.846 32.5165 27.6594 33.215 27.6598 33.9258C27.6602 34.6366 27.8475 35.3349 28.2029 35.9505L36.4359 50.065C36.7917 50.6813 37.3034 51.193 37.9196 51.5487C38.5358 51.9045 39.2349 52.0918 39.9464 52.0918L56.2865 52.1646C56.9973 52.1646 57.6957 51.9776 58.3115 51.6225C58.9272 51.2674 59.4388 50.7566 59.7949 50.1414Z" stroke="url(#paint0_linear_11_127)" stroke-width="6" stroke-linecap="round" stroke-linejoin="round"/>
<path d="M40.8248 46.5168C47.7376 50.5079 56.577 48.1394 60.5681 41.2266C64.5593 34.3138 62.1908 25.4744 55.2779 21.4833C48.3651 17.4922 39.5257 19.8607 35.5346 26.7735C31.5435 33.6863 33.912 42.5257 40.8248 46.5168Z" stroke="url(#paint1_linear_11_127)" stroke-width="10" stroke-linecap="round" stroke-linejoin="round"/>
</g>
<path d="M25.6186 51.0646L14.6164 33.0275L25.6186 14.9566C25.8921 14.6395 25.993 14.2881 25.9215 13.9025C25.8484 13.494 25.6791 13.1724 25.4135 12.9377L15.865 7.5646C15.6236 7.35128 15.3674 7.25382 15.0963 7.27221C14.893 7.286 14.7154 7.34399 14.5635 7.44617C14.389 7.54989 14.2492 7.66274 14.144 7.78473L0.35574 31.1597C-0.0464764 31.8502 0.00220871 32.2652 0.00220871 32.9409C0.0022068 33.6165 -0.0464554 34.1709 0.355761 34.8615L14.144 58.2365C14.2492 58.3585 14.3891 58.4713 14.5636 58.575C14.7155 58.6772 14.8931 58.7352 15.0964 58.749C15.3674 58.7674 15.6237 58.6699 15.865 58.4566L25.4136 53.0835C25.6791 52.8488 25.8484 52.5272 25.9215 52.1187C25.9931 51.7331 25.8921 51.3817 25.6186 51.0646Z" fill="url(#paint2_linear_11_127)"/>
<path d="M71.0105 51.0646L82.0128 33.0275L71.0106 14.9566C70.7371 14.6395 70.6361 14.2881 70.7077 13.9025C70.7808 13.494 70.9501 13.1724 71.2156 12.9377L80.7641 7.5646C81.0055 7.35128 81.2618 7.25382 81.5328 7.27221C81.7361 7.286 81.9137 7.34399 82.0656 7.44617C82.2401 7.54989 82.38 7.66274 82.4852 7.78473L96.2734 31.1597C96.6756 31.8502 96.6269 32.2652 96.6269 32.9409C96.6269 33.6165 96.6756 34.1709 96.2734 34.8615L82.4851 58.2365C82.3799 58.3585 82.2401 58.4713 82.0656 58.575C81.9137 58.6772 81.7361 58.7352 81.5328 58.749C81.2617 58.7674 81.0055 58.6699 80.7641 58.4566L71.2156 53.0835C70.95 52.8488 70.7807 52.5272 70.7076 52.1187C70.6361 51.7331 70.737 51.3817 71.0105 51.0646Z" fill="url(#paint3_linear_11_127)"/>
<defs>
<linearGradient id="paint0_linear_11_127" x1="12.5975" y1="34" x2="84.2897" y2="32.6886" gradientUnits="userSpaceOnUse">
<stop stop-color="#DB2777"/>
<stop offset="1" stop-color="#C084FC"/>
</linearGradient>
<linearGradient id="paint1_linear_11_127" x1="13.9089" y1="34" x2="83.8526" y2="34" gradientUnits="userSpaceOnUse">
<stop stop-color="#DB2777"/>
<stop offset="1" stop-color="#C084FC"/>
</linearGradient>
<linearGradient id="paint2_linear_11_127" x1="61" y1="33.0212" x2="0.00249552" y2="33.4115" gradientUnits="userSpaceOnUse">
<stop stop-color="#C084FC"/>
<stop offset="1" stop-color="#DB2777"/>
</linearGradient>
<linearGradient id="paint3_linear_11_127" x1="57" y1="33.0212" x2="96.9984" y2="33.2772" gradientUnits="userSpaceOnUse">
<stop stop-color="#DB2777"/>
<stop offset="1" stop-color="#C084FC"/>
</linearGradient>
<clipPath id="clip0_11_127">
<rect width="48.6422" height="48.6422" fill="white" transform="translate(39.1492 0.776794) rotate(30)"/>
</clipPath>
</defs>
</svg>
