<svg width="101" height="68" viewBox="0 0 101 68" fill="none" xmlns="http://www.w3.org/2000/svg">
<g clip-path="url(#clip0_11_127)">
<path d="M61.7949 50.1414L69.9019 36.0996C70.2567 35.4836 70.4433 34.7852 70.4429 34.0744C70.4425 33.3635 70.2552 32.6653 69.8998 32.0497L61.6668 17.9351C61.311 17.3189 60.7993 16.8072 60.1831 16.4514C59.5669 16.0956 58.8679 15.9083 58.1563 15.9083L41.8162 15.8356C41.1054 15.8356 40.407 16.0225 39.7913 16.3776C39.1755 16.7327 38.6639 17.2435 38.3078 17.8587L30.2008 31.9006C29.846 32.5165 29.6594 33.215 29.6598 33.9258C29.6602 34.6366 29.8475 35.3349 30.2029 35.9505L38.4359 50.065C38.7917 50.6813 39.3034 51.193 39.9196 51.5487C40.5358 51.9045 41.2349 52.0918 41.9464 52.0918L58.2865 52.1646C58.9973 52.1646 59.6957 51.9776 60.3115 51.6225C60.9272 51.2674 61.4388 50.7566 61.7949 50.1414Z" stroke="url(#paint0_linear_11_127)" stroke-width="6" stroke-linecap="round" stroke-linejoin="round"/>
<path d="M42.8248 46.5168C49.7376 50.5079 58.577 48.1394 62.5681 41.2266C66.5593 34.3138 64.1908 25.4744 57.2779 21.4833C50.3651 17.4922 41.5257 19.8607 37.5346 26.7735C33.5435 33.6863 35.912 42.5257 42.8248 46.5168Z" stroke="url(#paint1_linear_11_127)" stroke-width="10" stroke-linecap="round" stroke-linejoin="round"/>
</g>
<path d="M73.0106 14.9566L84.0657 33.0803L98.6271 33.0803C98.6271 32.4046 98.6757 31.8502 98.2735 31.1597L84.4852 7.7847C84.38 7.66271 84.2402 7.54986 84.0657 7.44614C83.9138 7.34396 83.7362 7.28597 83.5329 7.27218C83.2618 7.25379 83.0056 7.35125 82.7642 7.56457L73.2157 12.9377C72.9501 13.1724 72.7808 13.4939 72.7077 13.9024C72.6362 14.2881 72.7371 14.6395 73.0106 14.9566Z" fill="url(#paint2_linear_11_127)"/>
<path d="M73.0106 51.0645L84.0657 32.9409L98.6271 32.9409C98.6271 33.6165 98.6757 34.1709 98.2735 34.8614L84.4852 58.2364C84.38 58.3584 84.2402 58.4713 84.0657 58.575C83.9138 58.6772 83.7362 58.7352 83.5329 58.749C83.2618 58.7674 83.0056 58.6699 82.7642 58.4566L73.2157 53.0834C72.9501 52.8488 72.7808 52.5272 72.7077 52.1187C72.6362 51.7331 72.7371 51.3817 73.0106 51.0645Z" fill="url(#paint3_linear_11_127)"/>
<path d="M27.2903 51.0645L16.2352 32.9409L1.67385 32.9409C1.67385 33.6165 1.62519 34.1709 2.0274 34.8614L15.8157 58.2364C15.9209 58.3584 16.0607 58.4713 16.2352 58.575C16.3871 58.6772 16.5647 58.7352 16.768 58.749C17.0391 58.7674 17.2953 58.6699 17.5367 58.4566L27.0852 53.0834C27.3508 52.8488 27.5201 52.5272 27.5932 52.1187C27.6647 51.7331 27.5638 51.3817 27.2903 51.0645Z" fill="url(#paint4_linear_11_127)"/>
<path d="M27.2903 14.9566L16.2353 33.0803L1.67391 33.0803C1.67391 32.4046 1.62524 31.8502 2.02746 31.1597L15.8157 7.78471C15.9209 7.66273 16.0607 7.54988 16.2352 7.44616C16.3872 7.34397 16.5648 7.28598 16.7681 7.27219C17.0391 7.2538 17.2953 7.35126 17.5367 7.56458L27.0853 12.9377C27.3508 13.1724 27.5201 13.494 27.5932 13.9024C27.6648 14.2881 27.5638 14.6395 27.2903 14.9566Z" fill="url(#paint5_linear_11_127)"/>
<defs>
<linearGradient id="paint0_linear_11_127" x1="14.5975" y1="34" x2="86.2897" y2="32.6886" gradientUnits="userSpaceOnUse">
<stop stop-color="#DB2777"/>
<stop offset="1" stop-color="#C084FC"/>
</linearGradient>
<linearGradient id="paint1_linear_11_127" x1="15.9089" y1="34" x2="85.8526" y2="34" gradientUnits="userSpaceOnUse">
<stop stop-color="#DB2777"/>
<stop offset="1" stop-color="#C084FC"/>
</linearGradient>
<linearGradient id="paint2_linear_11_127" x1="57.5001" y1="32.5" x2="100" y2="33" gradientUnits="userSpaceOnUse">
<stop stop-color="#DB2777"/>
<stop offset="1" stop-color="#C084FC"/>
</linearGradient>
<linearGradient id="paint3_linear_11_127" x1="56.0001" y1="34.5" x2="100" y2="35" gradientUnits="userSpaceOnUse">
<stop stop-color="#DB2777"/>
<stop offset="1" stop-color="#C084FC"/>
</linearGradient>
<linearGradient id="paint4_linear_11_127" x1="10.5001" y1="34" x2="92.0001" y2="35" gradientUnits="userSpaceOnUse">
<stop stop-color="#DB2777"/>
<stop offset="1" stop-color="#C084FC"/>
</linearGradient>
<linearGradient id="paint5_linear_11_127" x1="9.50006" y1="31" x2="91.0001" y2="31.5" gradientUnits="userSpaceOnUse">
<stop stop-color="#DB2777"/>
<stop offset="1" stop-color="#C084FC"/>
</linearGradient>
<clipPath id="clip0_11_127">
<rect width="48.6422" height="48.6422" fill="white" transform="translate(41.1492 0.776794) rotate(30)"/>
</clipPath>
</defs>
</svg>
