<svg width="97" height="52" viewBox="0 0 97 52" fill="none" xmlns="http://www.w3.org/2000/svg">
<path d="M59.7943 42.8703L67.9013 28.8285C68.2561 28.2125 68.4427 27.5141 68.4423 26.8033C68.4419 26.0924 68.2546 25.3942 67.8992 24.7786L59.6662 10.664C59.3104 10.0478 58.7987 9.53605 58.1825 9.18025C57.5663 8.82445 56.8673 8.63715 56.1557 8.63715L39.8156 8.56445C39.1048 8.56445 38.4064 8.75135 37.7907 9.10645C37.1749 9.46155 36.6633 9.97235 36.3072 10.5876L28.2002 24.6295C27.8454 25.2454 27.6588 25.9439 27.6592 26.6547C27.6596 27.3655 27.8469 28.0638 28.2023 28.6794L36.4353 42.7939C36.7911 43.4102 37.3028 43.9218 37.919 44.2775C38.5352 44.6333 39.2343 44.8207 39.9458 44.8207L56.2859 44.8935C56.9967 44.8935 57.6951 44.7065 58.3109 44.3514C58.9266 43.9963 59.4382 43.4855 59.7943 42.8703Z" stroke="url(#paint0_linear_33_29)" stroke-width="6" stroke-linecap="round" stroke-linejoin="round"/>
<path d="M40.8247 39.2467C47.7375 43.2378 56.5769 40.8693 60.568 33.9565C64.5592 27.0437 62.1907 18.2043 55.2778 14.2132C48.365 10.2221 39.5256 12.5906 35.5345 19.5034C31.5434 26.4162 33.9119 35.2556 40.8247 39.2467Z" stroke="url(#paint1_linear_33_29)" stroke-width="10" stroke-linecap="round" stroke-linejoin="round"/>
<path d="M25.6182 43.7946L14.616 25.7575L25.6182 7.68658C25.8917 7.36948 25.9926 7.01808 25.9211 6.63248C25.848 6.22398 25.6787 5.90238 25.4131 5.66768L15.8646 0.294579C15.6232 0.0812593 15.367 -0.0162006 15.0959 0.00218942C14.8926 0.0159794 14.715 0.0739691 14.5631 0.176149C14.3886 0.279869 14.2488 0.392719 14.1436 0.514709L0.355381 23.8897C-0.0468357 24.5802 0.00184938 24.9952 0.00184938 25.6709C0.00184747 26.3465 -0.0468147 26.9009 0.355402 27.5915L14.1436 50.9665C14.2488 51.0885 14.3887 51.2013 14.5632 51.305C14.7151 51.4072 14.8927 51.4652 15.096 51.479C15.367 51.4974 15.6233 51.3999 15.8646 51.1866L25.4132 45.8135C25.6787 45.5788 25.848 45.2572 25.9211 44.8487C25.9927 44.4631 25.8917 44.1117 25.6182 43.7946Z" fill="url(#paint2_linear_33_29)"/>
<path d="M71.0107 43.7946L82.013 25.7575L71.0108 7.68658C70.7373 7.36948 70.6363 7.01808 70.7079 6.63248C70.781 6.22398 70.9503 5.90238 71.2158 5.66768L80.7643 0.294579C81.0057 0.0812593 81.262 -0.0162006 81.533 0.00218942C81.7363 0.0159794 81.9139 0.0739691 82.0658 0.176149C82.2403 0.279869 82.3802 0.392719 82.4854 0.514709L96.2736 23.8897C96.6758 24.5802 96.6271 24.9952 96.6271 25.6709C96.6271 26.3465 96.6758 26.9009 96.2736 27.5915L82.4853 50.9665C82.3801 51.0885 82.2403 51.2013 82.0658 51.305C81.9139 51.4072 81.7363 51.4652 81.533 51.479C81.2619 51.4974 81.0057 51.3999 80.7643 51.1866L71.2158 45.8135C70.9502 45.5788 70.7809 45.2572 70.7078 44.8487C70.6363 44.4631 70.7372 44.1117 71.0107 43.7946Z" fill="url(#paint3_linear_33_29)"/>
<defs>
<linearGradient id="paint0_linear_33_29" x1="12.5969" y1="26.7289" x2="84.2891" y2="25.4175" gradientUnits="userSpaceOnUse">
<stop stop-color="#E50B4C"/>
<stop offset="1" stop-color="#BD13F6"/>
</linearGradient>
<linearGradient id="paint1_linear_33_29" x1="13.9088" y1="26.7289" x2="83.8525" y2="26.7289" gradientUnits="userSpaceOnUse">
<stop stop-color="#E50B4C"/>
<stop offset="1" stop-color="#BD13F6"/>
</linearGradient>
<linearGradient id="paint2_linear_33_29" x1="0.00213463" y1="26.1415" x2="63" y2="24.7295" gradientUnits="userSpaceOnUse">
<stop stop-color="#E50B4C"/>
<stop offset="1" stop-color="#BD13F6"/>
</linearGradient>
<linearGradient id="paint3_linear_33_29" x1="57.0002" y1="25.7512" x2="96.9986" y2="26.0072" gradientUnits="userSpaceOnUse">
<stop stop-color="#E50B4C"/>
<stop offset="1" stop-color="#BD13F6"/>
</linearGradient>
</defs>
</svg>
